# xmcd
#
# Track frame offsets:
#	150
#	15107
#	38823
#	53832
#	63583
#	76287
#	86741
#	96808
#	102302
#	110796
#	121055
#	131491
#	148293
#	160394
#	175440
#	182765
#	193491
#	207978
#	219486
#	240402
#	250521
#
# Disc length: 3534 seconds
#
# Revision: 1
# Processed by: cddbd v1.5.2PL0 Copyright (c) Steve Scherf et al.
# Submitted via: audiograbber 1.83.01
#
DISCID=2b0dcc15
DTITLE=COCCIANTE-PANELLA - GUILIETTA E ROMEO Brani scelti
DYEAR=2007
DGENRE=
TTITLE0=VERONA
TTITLE1=L'AFFRONTO
TTITLE2=IO AMO E NON SO
TTITLE3=LA REGINA DELLA NOTTE
TTITLE4=LA FESTA SIAMO NOI
TTITLE5=GLI OCCHI NEGLI OCCHI
TTITLE6=T'AMO
TTITLE7=IL NOME DEL NEMICO
TTITLE8=CHI SEI ?
TTITLE9=IO, ROMEO
TTITLE10=TU SEI
TTITLE11=IO VI BENEDICO
TTITLE12=MERCUZIO, TEBALDO, LE SPADE
TTITLE13=COM'E' LEGGERA LA VITA
TTITLE14=MORTE DI TEBALDO
TTITLE15=LONTANO DA VERONA
TTITLE16=PER RABBIA E PER ERRORE
TTITLE17=QUEL RESPIRO, LA VITA
TTITLE18=FESTA PRESTO
TTITLE19=MORTE DI ROMEO
TTITLE20=IL CUORE
EXTD=
EXTT0=
EXTT1=
EXTT2=
EXTT3=
EXTT4=
EXTT5=
EXTT6=
EXTT7=
EXTT8=
EXTT9=
EXTT10=
EXTT11=
EXTT12=
EXTT13=
EXTT14=
EXTT15=
EXTT16=
EXTT17=
EXTT18=
EXTT19=
EXTT20=
PLAYORDER=
